<svg xmlns="http://www.w3.org/2000/svg" width="273.10894775390625" height="213.81393432617188" viewBox="-57.27876281738281 -20.131629943847656 273.10894775390625 213.81393432617188"><title>Neo4j Graph Visualization</title><desc>Created using Neo4j (http://www.neo4j.com/)</desc><g class="layer relationships"><g class="relationship" transform="translate(174.63731543972722 164.6823059175773) rotate(222.4799143630583)"><path class="outline" fill="#A5ABB6" stroke="none" d="M 25 0.5 L 35.50831117058647 0.5 L 35.50831117058647 -0.5 L 25 -0.5 Z M 81.07081117058647 0.5 L 91.57912234117293 0.5 L 91.57912234117293 3.5 L 98.57912234117293 0 L 91.57912234117293 -3.5 L 91.57912234117293 -0.5 L 81.07081117058647 -0.5 Z"/><text text-anchor="middle" pointer-events="none" font-size="8px" fill="#000000" x="58.28956117058647" y="3" transform="rotate(180 58.28956117058647 0)" font-family="sans-serif">ACTED_IN</text></g><g class="relationship" transform="translate(186.83018866501175 11.11163696466614) rotate(505.842538261395)"><path class="outline" fill="#A5ABB6" stroke="none" d="M 25 0.5 L 36.15652311647453 0.5 L 36.15652311647453 -0.5 L 25 -0.5 Z M 81.71902311647453 0.5 L 92.87554623294906 0.5 L 92.87554623294906 3.5 L 99.87554623294906 0 L 92.87554623294906 -3.5 L 92.87554623294906 -0.5 L 81.71902311647453 -0.5 Z"/><text text-anchor="middle" pointer-events="none" font-size="8px" fill="#000000" x="58.93777311647453" y="3" transform="rotate(180 58.93777311647453 0)" font-family="sans-serif">ACTED_IN</text></g><g class="relationship" transform="translate(-28.278761750568698 8.86836874437406) rotate(392.91688070494104)"><path class="outline" fill="#A5ABB6" stroke="none" d="M 25 0.5 L 40.29414124277298 0.5 L 40.29414124277298 -0.5 L 25 -0.5 Z M 85.85664124277298 0.5 L 101.15078248554596 0.5 L 101.15078248554596 3.5 L 108.15078248554596 0 L 101.15078248554596 -3.5 L 101.15078248554596 -0.5 L 85.85664124277298 -0.5 Z"/><text text-anchor="middle" pointer-events="none" font-size="8px" fill="#000000" x="63.07539124277298" y="3" font-family="sans-serif">ACTED_IN</text></g><g class="relationship" transform="translate(-12.680052870004687 158.461039059461) rotate(321.2332580042528)"><path class="outline" fill="#A5ABB6" stroke="none" d="M 25 0.5 L 35.39364305901014 0.5 L 35.39364305901014 -0.5 L 25 -0.5 Z M 80.95614305901015 0.5 L 91.34978611802028 0.5 L 91.34978611802028 3.5 L 98.34978611802028 0 L 91.34978611802028 -3.5 L 91.34978611802028 -0.5 L 80.95614305901015 -0.5 Z"/><text text-anchor="middle" pointer-events="none" font-size="8px" fill="#000000" x="58.17489305901014" y="3" font-family="sans-serif">ACTED_IN</text></g></g><g class="layer nodes"><g class="node" transform="translate(83.49596694282923,81.22540642579426)"><circle class="outline" cx="0" cy="0" r="25" fill="#F79767" stroke="#f36924" stroke-width="2px"/><text text-anchor="middle" pointer-events="none" font-family="sans-serif" dy="1.5625" font-size="25" fill="#FFFFFF"/><text text-anchor="middle" pointer-events="none" x="0" y="5" font-size="10px" fill="#FFFFFF" font-family="sans-serif"> Toy Story</text></g><g class="node" transform="translate(174.63731543972722,164.6823059175773)"><circle class="outline" cx="0" cy="0" r="25" fill="#F16667" stroke="#eb2728" stroke-width="2px"/><text text-anchor="middle" pointer-events="none" font-family="sans-serif" dy="1.5625" font-size="25" fill="#FFFFFF"/><text text-anchor="middle" pointer-events="none" font-family="sans-serif" dy="1.5625" font-size="25" fill="#FFFFFF"/><text text-anchor="middle" pointer-events="none" x="0" y="0" font-size="10px" fill="#FFFFFF" font-family="sans-serif"> Jim</text><text text-anchor="middle" pointer-events="none" x="0" y="10" font-size="10px" fill="#FFFFFF" font-family="sans-serif"> Varney</text></g><g class="node" transform="translate(186.83018866501175,11.11163696466614)"><circle class="outline" cx="0" cy="0" r="25" fill="#F16667" stroke="#eb2728" stroke-width="2px"/><text text-anchor="middle" pointer-events="none" font-family="sans-serif" dy="1.5625" font-size="25" fill="#FFFFFF"/><text text-anchor="middle" pointer-events="none" x="0" y="5" font-size="10px" fill="#FFFFFF" font-family="sans-serif"> Tim Allen</text></g><g class="node" transform="translate(-28.278761750568698,8.86836874437406)"><circle class="outline" cx="0" cy="0" r="25" fill="#D9C8AE" stroke="#c0a378" stroke-width="2px"/><text text-anchor="middle" pointer-events="none" font-family="sans-serif" dy="1.5625" font-size="25" fill="#2A2C34"/><text text-anchor="middle" pointer-events="none" font-family="sans-serif" dy="1.5625" font-size="25" fill="#2A2C34"/><text text-anchor="middle" pointer-events="none" x="0" y="0" font-size="10px" fill="#2A2C34" font-family="sans-serif"> Tom</text><text text-anchor="middle" pointer-events="none" x="0" y="10" font-size="10px" fill="#2A2C34" font-family="sans-serif"> Hanks</text></g><g class="node" transform="translate(-12.680052870004687,158.461039059461)"><circle class="outline" cx="0" cy="0" r="25" fill="#F16667" stroke="#eb2728" stroke-width="2px"/><text text-anchor="middle" pointer-events="none" font-family="sans-serif" dy="1.5625" font-size="25" fill="#FFFFFF"/><text text-anchor="middle" pointer-events="none" font-family="sans-serif" dy="1.5625" font-size="25" fill="#FFFFFF"/><text text-anchor="middle" pointer-events="none" x="0" y="0" font-size="10px" fill="#FFFFFF" font-family="sans-serif"> Don</text><text text-anchor="middle" pointer-events="none" x="0" y="10" font-size="10px" fill="#FFFFFF" font-family="sans-serif"> Rickles</text></g></g></svg>